HIERARCHY
ROOT Hips
{
	OFFSET 0.000000 0.000000 0.000000
	CHANNELS 6 Xposition Yposition Zposition Xrotation Yrotation Zrotation
	JOINT LeftUpLeg_virtual
	{
		OFFSET 0.000000 0.000000 0.000000
		CHANNELS 3 Xrotation Yrotation Zrotation
		JOINT LeftUpLeg
		{
			OFFSET 15.427100 -6.655098 0.678600
			CHANNELS 3 Xrotation Yrotation Zrotation
			JOINT LeftLeg
			{
				OFFSET 4.081073 -39.591068 13.024000
				CHANNELS 3 Xrotation Yrotation Zrotation
				JOINT LeftFoot
				{
					OFFSET -4.081074 -37.707932 -15.979700
					CHANNELS 3 Xrotation Yrotation Zrotation
					JOINT LeftToeBase
					{
						OFFSET 5.346399 -15.068900 20.645000
						CHANNELS 3 Xrotation Yrotation Zrotation
						JOINT LeftToe_End
						{
							OFFSET 2.754700 0.931300 11.300900
							CHANNELS 3 Xrotation Yrotation Zrotation
							End Site
							{
								OFFSET 0 0 0
							}
						}
					}
				}
			}
		}
	}
	JOINT RightUpLeg_virtual
	{
		OFFSET 0.000000 0.000000 0.000000
		CHANNELS 3 Xrotation Yrotation Zrotation
		JOINT RightUpLeg
		{
			OFFSET -15.569500 -6.655098 0.678600
			CHANNELS 3 Xrotation Yrotation Zrotation
			JOINT RightLeg
			{
				OFFSET -4.081825 -39.591045 13.023800
				CHANNELS 3 Xrotation Yrotation Zrotation
				JOINT RightFoot
				{
					OFFSET 4.081824 -37.707954 -15.979600
					CHANNELS 3 Xrotation Yrotation Zrotation
					JOINT RightToeBase
					{
						OFFSET -5.346400 -15.068900 20.645000
						CHANNELS 3 Xrotation Yrotation Zrotation
						JOINT RightToe_End
						{
							OFFSET -2.754700 0.931300 11.300900
							CHANNELS 3 Xrotation Yrotation Zrotation
							End Site
							{
								OFFSET 0 0 0
							}
						}
					}
				}
			}
		}
	}
	JOINT Spine_virtual
	{
		OFFSET 0.000000 0.000000 0.000000
		CHANNELS 3 Xrotation Yrotation Zrotation
		JOINT Spine
		{
			OFFSET -0.279200 12.230698 -2.892100
			CHANNELS 3 Xrotation Yrotation Zrotation
			JOINT Spine1
			{
				OFFSET -0.232667 10.192268 -1.242267
				CHANNELS 3 Xrotation Yrotation Zrotation
				JOINT Spine1_split
				{
					OFFSET -0.232667 10.192268 -1.242267
					CHANNELS 3 Xrotation Yrotation Zrotation
					JOINT Spine2
					{
						OFFSET -0.232667 10.192268 -1.242267
						CHANNELS 3 Xrotation Yrotation Zrotation
						JOINT Neck_virtual
						{
							OFFSET 0.000000 0.000000 0.000000
							CHANNELS 3 Xrotation Yrotation Zrotation
							JOINT Neck
							{
								OFFSET -0.418800 17.814194 8.416900
								CHANNELS 3 Xrotation Yrotation Zrotation
								JOINT Head
								{
									OFFSET 0.000000 7.031097 3.806800
									CHANNELS 3 Xrotation Yrotation Zrotation
									JOINT HeadTop_End
									{
										OFFSET 0.000000 24.646606 12.978600
										CHANNELS 3 Xrotation Yrotation Zrotation
										End Site
										{
											OFFSET 0 0 0
										}
									}
								}
							}
						}
						JOINT LeftShoulder_virtual
						{
							OFFSET 0.000000 0.000000 0.000000
							CHANNELS 3 Xrotation Yrotation Zrotation
							JOINT LeftShoulder
							{
								OFFSET 8.476499 7.247704 -3.868750
								CHANNELS 3 Xrotation Yrotation Zrotation
								JOINT LeftShoulder_split
								{
									OFFSET 8.476499 7.247704 -3.868750
									CHANNELS 3 Xrotation Yrotation Zrotation
									JOINT LeftArm
									{
										OFFSET 9.308998 -2.777710 0.208600
										CHANNELS 3 Xrotation Yrotation Zrotation
										JOINT LeftForeArm
										{
											OFFSET 29.972298 0.000000 0.000000
											CHANNELS 3 Xrotation Yrotation Zrotation
											JOINT LeftHand
											{
												OFFSET 26.026505 0.000000 0.000000
												CHANNELS 3 Xrotation Yrotation Zrotation
												End Site
												{
													OFFSET 0 0 0
												}
											}
										}
									}
								}
							}
						}
						JOINT RightShoulder_virtual
						{
							OFFSET 0.000000 0.000000 0.000000
							CHANNELS 3 Xrotation Yrotation Zrotation
							JOINT RightShoulder
							{
								OFFSET -7.570500 7.247704 -3.868750
								CHANNELS 3 Xrotation Yrotation Zrotation
								JOINT RightShoulder_split
								{
									OFFSET -7.570500 7.247704 -3.868750
									CHANNELS 3 Xrotation Yrotation Zrotation
									JOINT RightArm
									{
										OFFSET -9.308998 -2.777710 0.208500
										CHANNELS 3 Xrotation Yrotation Zrotation
										JOINT RightForeArm
										{
											OFFSET -29.972300 0.000000 0.000000
											CHANNELS 3 Xrotation Yrotation Zrotation
											JOINT RightHand
											{
												OFFSET -26.026505 0.000000 0.000000
												CHANNELS 3 Xrotation Yrotation Zrotation
												End Site
												{
													OFFSET 0 0 0
												}
											}
										}
									}
								}
							}
						}
					}
				}
			}
		}
	}
}
MOTION
Frames: 10
Frame Time: 0.03333333
-0.194024 86.554420 1.054985 0.000000 0.000000 0.000000 -178.385212 24.418973 -177.035416 -24.403045 -7.296525 11.800001 27.040690 -1.215350 -1.332319 -1.640480 -2.109419 -16.074452 0.002990 -0.026214 0.062611 0.000000 0.000000 0.000000 -178.385212 24.418973 -177.035416 -16.364795 -12.565919 -21.983988 36.999613 1.567142 2.052946 -18.305457 -9.281195 11.373313 -0.012206 -0.109708 0.262088 0.000000 0.000000 0.000000 -178.385212 24.418973 -177.035416 5.548650 0.068684 -1.299936 11.095624 0.009768 -0.734627 0.000000 0.000000 0.000000 0.000000 0.000000 0.000000 11.095630 0.009766 -0.734626 -10.509367 -1.525009 -3.378805 -17.396265 -3.946702 2.467847 0.000000 0.000000 0.000000 11.095630 0.009766 -0.734626 9.458509 -6.444352 -14.996469 0.000000 0.000000 0.000000 -9.678076 10.609544 -35.777197 0.014663 -55.260971 0.178991 0.000000 0.000000 0.000000 11.095630 0.009766 -0.734626 -3.413057 0.044914 -0.357075 0.000000 0.000000 0.000000 -8.509086 -11.385612 60.673595 -0.093539 56.136826 -0.118054 0.000000 0.000000 0.000000 
-0.336687 85.863625 0.974739 0.000000 0.000000 0.000000 -179.703793 26.721377 -176.919603 -26.200471 -4.898382 13.495070 29.196760 -1.332382 -1.451040 -3.020740 -2.763662 -15.969366 0.690425 0.188220 -0.109181 0.000000 0.000000 0.000000 -179.703793 26.721377 -176.919603 -18.604563 -10.307275 -21.269142 38.407865 1.635977 2.130078 -18.376737 -8.908331 11.314259 -0.012206 -0.109707 0.262088 0.000000 0.000000 0.000000 -179.703793 26.721377 -176.919603 5.531541 -0.038162 -1.342960 11.063666 -0.166386 -0.951348 0.000000 0.000000 0.000000 0.000000 0.000000 0.000000 11.063666 -0.166378 -0.951352 -11.367811 -2.308015 -3.134615 -16.612921 -4.878088 3.873081 0.000000 0.000000 0.000000 11.063666 -0.166378 -0.951352 9.287384 -6.480150 -13.016975 0.000000 0.000000 0.000000 -7.148109 10.286345 -34.868140 0.002874 -53.374380 0.177149 0.000000 0.000000 0.000000 11.063666 -0.166378 -0.951352 -3.131421 0.557778 -0.519414 0.000000 0.000000 0.000000 -7.620060 -7.972460 58.297290 -0.094711 53.382826 -0.125817 0.000000 0.000000 0.000000 
-0.672810 84.074081 0.735180 0.000000 0.000000 0.000000 176.810225 32.541343 -176.160332 -30.041504 -1.720622 17.258846 34.402283 -1.696372 -1.783325 -6.529638 -1.514397 -16.228120 0.935727 0.753745 -0.193150 0.000000 0.000000 0.000000 176.810225 32.541343 -176.160332 -24.533117 -5.348322 -19.445318 41.765920 1.803518 2.311749 -18.349573 -7.310140 11.277059 -0.012211 -0.109719 0.262096 0.000000 0.000000 0.000000 176.810225 32.541343 -176.160332 5.498438 -0.175358 -1.329005 10.998613 -0.359418 -1.282566 0.000000 0.000000 0.000000 0.000000 0.000000 0.000000 10.998613 -0.359416 -1.282569 -11.857301 -3.028267 -2.963669 -14.919158 -5.734496 5.352189 0.000000 0.000000 0.000000 10.998613 -0.359416 -1.282569 8.482503 -6.666482 -10.834774 0.000000 0.000000 0.000000 -0.632547 9.485281 -32.710985 -0.030064 -48.869642 0.157703 0.000000 0.000000 0.000000 10.998613 -0.359416 -1.282569 -2.413236 1.858727 -0.950987 0.000000 0.000000 0.000000 -5.525520 0.166516 52.613780 -0.105292 46.386458 -0.129182 0.000000 0.000000 0.000000 
-1.054580 81.607178 0.326118 0.000000 0.000000 0.000000 171.634007 40.334750 -173.883707 -34.004626 0.516174 21.742862 40.816029 -2.279715 -2.259182 -11.226131 2.373384 -16.928023 0.924907 1.557139 -0.234214 0.000000 0.000000 0.000000 171.634007 40.334750 -173.883707 -33.040169 -0.651029 -17.222553 45.834504 1.981497 2.523010 -17.871021 -3.281907 11.385180 -0.012202 -0.109713 0.262095 0.000000 0.000000 0.000000 171.634007 40.334750 -173.883707 5.472887 -0.320462 -1.295195 10.946324 -0.549783 -1.653782 0.000000 0.000000 0.000000 0.000000 0.000000 0.000000 10.946322 -0.549788 -1.653777 -12.208577 -3.739111 -2.814222 -12.884070 -6.576745 6.905015 0.000000 0.000000 0.000000 10.946322 -0.549788 -1.653777 7.303195 -6.929784 -8.542112 0.000000 0.000000 0.000000 8.264776 8.477109 -30.187462 -0.064692 -43.516187 0.131137 0.000000 0.000000 0.000000 10.946322 -0.549788 -1.653777 -1.448401 3.591154 -1.569067 0.000000 0.000000 0.000000 -3.068859 9.890794 45.806083 -0.120203 37.030096 -0.109134 0.000000 0.000000 0.000000 
-1.290812 78.722923 -0.255032 0.000000 0.000000 0.000000 164.893348 48.374815 -169.326714 -36.906353 1.837555 25.765550 47.280970 -3.029538 -2.815529 -16.454353 7.978492 -17.830433 0.894730 2.487246 -0.320201 0.000000 0.000000 0.000000 164.893348 48.374815 -169.326714 -42.583282 2.570782 -15.067168 50.061660 2.122773 2.731028 -17.155733 2.632506 11.534841 -0.012207 -0.109720 0.262094 0.000000 0.000000 0.000000 164.893348 48.374815 -169.326714 5.478243 -0.474934 -1.266534 10.954000 -0.719043 -1.988073 0.000000 0.000000 0.000000 0.000000 0.000000 0.000000 10.954002 -0.719038 -1.988081 -12.650152 -4.494262 -2.635152 -11.070913 -7.464634 8.531894 0.000000 0.000000 0.000000 10.954002 -0.719038 -1.988081 6.007334 -7.195626 -6.230389 0.000000 0.000000 0.000000 17.938922 7.547981 -28.176477 -0.086432 -39.060680 0.105274 0.000000 0.000000 0.000000 10.954002 -0.719038 -1.988081 -0.424238 5.397995 -2.284073 0.000000 0.000000 0.000000 -0.991840 18.110252 40.023908 -0.089877 27.172369 -0.038650 0.000000 0.000000 0.000000 
-1.148581 75.533699 -0.952480 0.000000 0.000000 0.000000 156.869214 54.872312 -162.533982 -38.704855 2.771947 28.840071 53.285465 -3.909500 -3.411039 -21.795292 13.454909 -18.694479 0.870910 3.434419 -0.391796 0.000000 0.000000 0.000000 156.869214 54.872312 -162.533982 -51.675063 4.358976 -13.466038 54.588139 2.262694 2.950978 -16.911852 8.828772 11.629836 -0.012200 -0.109710 0.262092 0.000000 0.000000 0.000000 156.869214 54.872312 -162.533982 5.537677 -0.643557 -1.232159 11.069408 -0.850743 -2.209255 0.000000 0.000000 0.000000 0.000000 0.000000 0.000000 11.069412 -0.850733 -2.209258 -13.406771 -5.347420 -2.374740 -10.036166 -8.456554 10.235260 0.000000 0.000000 0.000000 11.069412 -0.850733 -2.209258 4.852343 -7.386990 -3.988791 0.000000 0.000000 0.000000 26.796804 7.032194 -27.561505 -0.077162 -37.243980 0.090616 0.000000 0.000000 0.000000 11.069412 -0.850733 -2.209258 0.475752 6.921114 -2.995026 0.000000 0.000000 0.000000 -0.123353 21.605116 37.585612 -0.063877 18.677685 -0.004406 0.000000 0.000000 0.000000 
-1.558540 72.522377 -1.079056 0.000000 0.000000 0.000000 143.677428 57.199371 -150.804116 -45.211430 3.797786 31.569496 58.471747 -4.762451 -3.969403 -25.137217 15.920932 -18.996325 0.692294 5.628336 -0.818215 0.000000 0.000000 0.000000 143.677428 57.199371 -150.804116 -63.506184 4.140885 -13.081428 58.261302 2.391722 3.135788 -15.428637 14.837468 11.314801 -0.012204 -0.109727 0.262095 0.000000 0.000000 0.000000 143.677428 57.199371 -150.804116 5.724500 -0.750548 -1.107170 11.439688 -0.867377 -2.276248 0.000000 0.000000 0.000000 0.000000 0.000000 0.000000 11.439705 -0.867376 -2.276255 -16.480963 -7.044822 -1.461830 -10.004625 -10.443924 12.856518 0.000000 0.000000 0.000000 11.439705 -0.867376 -2.276255 3.443063 -7.303133 -1.903865 0.000000 0.000000 0.000000 38.044570 11.926890 -28.762507 -0.037294 -49.891298 0.102555 0.000000 0.000000 0.000000 11.439705 -0.867376 -2.276255 1.280253 7.610409 -4.277408 0.000000 0.000000 0.000000 -2.102547 12.525092 36.299696 -0.038946 13.597766 -0.000710 0.000000 0.000000 0.000000 
-1.719635 69.582489 -1.243458 0.000000 0.000000 0.000000 132.138616 56.478431 -140.759066 -51.458365 2.871157 33.536495 63.249129 -5.621965 -4.506213 -27.991982 18.137403 -19.352977 0.490301 8.079118 -1.282888 0.000000 0.000000 0.000000 132.138616 56.478431 -140.759066 -73.695098 4.294417 -12.553757 61.680652 2.616573 3.344695 -14.645526 17.898782 11.212164 -0.012216 -0.109717 0.262042 0.000000 0.000000 0.000000 132.138616 56.478431 -140.759066 5.959954 -0.590823 -0.900959 11.913787 -0.393895 -2.162937 0.000000 0.000000 0.000000 0.000000 0.000000 0.000000 11.913792 -0.393892 -2.162945 -18.014576 -8.160172 -2.830111 -10.646724 -13.358945 17.231650 0.000000 0.000000 0.000000 11.913792 -0.393892 -2.162945 1.901308 -7.527059 -1.764093 0.000000 0.000000 0.000000 48.567665 19.428222 -38.933953 -0.006776 -63.954982 0.117930 0.000000 0.000000 0.000000 11.913792 -0.393892 -2.162945 1.797510 7.783155 -5.371231 0.000000 0.000000 0.000000 -2.760460 -9.403075 36.649275 -0.023527 22.674836 -0.028194 0.000000 0.000000 0.000000 
-1.664864 66.616142 -1.297504 0.000000 0.000000 0.000000 127.617249 54.004680 -137.388722 -56.509198 0.177077 34.622014 67.726482 -6.426091 -4.997875 -29.934370 18.628579 -19.896855 0.524198 8.996554 -1.223620 0.000000 0.000000 0.000000 127.617249 54.004680 -137.388722 -80.420136 5.110544 -13.153644 65.875221 3.108754 3.674897 -15.654980 17.840802 11.605422 -0.012201 -0.109695 0.262089 0.000000 0.000000 0.000000 127.617249 54.004680 -137.388722 6.499680 -0.332006 -0.732047 13.000434 0.212789 -1.978440 0.000000 0.000000 0.000000 0.000000 0.000000 0.000000 13.000458 0.212796 -1.978445 -18.119715 -8.797279 -5.605345 -11.226639 -16.555740 21.762615 0.000000 0.000000 0.000000 13.000458 0.212796 -1.978445 0.564391 -8.526631 -3.772994 0.000000 0.000000 0.000000 55.413690 24.161335 -50.071857 0.018736 -71.476803 0.131788 0.000000 0.000000 0.000000 13.000458 0.212796 -1.978445 1.729120 7.216411 -5.296658 0.000000 0.000000 0.000000 -6.137124 -31.785685 37.726273 -0.015350 27.344884 -0.054081 0.000000 0.000000 0.000000 
-1.618942 63.490105 -1.389671 0.000000 0.000000 0.000000 127.844967 52.940772 -137.077607 -58.724546 -2.531321 35.044075 72.655284 -7.408266 -5.577249 -30.078975 18.240582 -21.360728 -2.029332 8.247546 -0.241275 0.000000 0.000000 0.000000 127.844967 52.940772 -137.077607 -84.344913 7.095584 -14.918549 70.875418 3.841467 4.115286 -17.243786 17.855609 12.272871 -0.012199 -0.109712 0.262093 0.000000 0.000000 0.000000 127.844967 52.940772 -137.077607 7.552961 -0.211110 -0.595794 15.110882 0.512349 -1.876412 0.000000 0.000000 0.000000 0.000000 0.000000 0.000000 15.110860 0.512347 -1.876407 -17.740633 -9.304822 -7.999181 -11.905557 -19.076090 24.596339 0.000000 0.000000 0.000000 15.110860 0.512347 -1.876407 -0.353183 -10.017635 -7.425513 0.000000 0.000000 0.000000 51.249389 25.619287 -57.671262 -0.009024 -64.490148 0.077964 0.000000 0.000000 0.000000 15.110860 0.512347 -1.876407 1.271552 6.452669 -4.019049 0.000000 0.000000 0.000000 -6.322944 -45.908068 40.431984 -0.000347 27.249642 -0.046986 0.000000 0.000000 0.000000 
